<svg width="24" height="25" viewBox="0 0 24 25" fill="none" xmlns="http://www.w3.org/2000/svg">
<path d="M21.9646 11.2672L17.7459 14.9075L19.0312 20.3515C19.1021 20.6471 19.0838 20.957 18.9787 21.2421C18.8736 21.5273 18.6863 21.7749 18.4405 21.9537C18.1947 22.1324 17.9015 22.2344 17.5978 22.2466C17.2941 22.2587 16.9936 22.1807 16.7343 22.0222L11.9999 19.1084L7.26275 22.0222C7.00347 22.1797 6.70335 22.2571 6.4002 22.2444C6.09704 22.2318 5.8044 22.1298 5.55913 21.9511C5.31386 21.7725 5.12692 21.5253 5.02185 21.2407C4.91679 20.956 4.89829 20.6467 4.96869 20.3515L6.25869 14.9075L2.03994 11.2672C1.81053 11.0689 1.64462 10.8074 1.56293 10.5154C1.48123 10.2234 1.48737 9.91382 1.58058 9.62528C1.67379 9.33675 1.84994 9.08207 2.08703 8.89305C2.32412 8.70404 2.61164 8.58905 2.91369 8.56247L8.44494 8.11622L10.5787 2.95247C10.6942 2.67105 10.8908 2.43033 11.1434 2.26091C11.3961 2.0915 11.6934 2.00104 11.9976 2.00104C12.3018 2.00104 12.5991 2.0915 12.8518 2.26091C13.1044 2.43033 13.301 2.67105 13.4165 2.95247L15.5493 8.11622L21.0806 8.56247C21.3832 8.58807 21.6716 8.70241 21.9095 8.89116C22.1475 9.07992 22.3244 9.3347 22.4182 9.62358C22.512 9.91247 22.5185 10.2226 22.4368 10.5151C22.3551 10.8077 22.1889 11.0696 21.959 11.2681L21.9646 11.2672Z" fill="#A85FDD"/>
</svg>
